<mxfile host="app.diagrams.net" modified="2022-02-23T02:03:14.622Z" agent="5.0 (Macintosh; Intel Mac OS X 10_15_7) AppleWebKit/537.36 (KHTML, like Gecko) Chrome/98.0.4758.82 Safari/537.36" etag="GEakMi9ZZ0PBOC5XRVw6" version="16.6.2" type="github">
  <diagram id="L-rPT5eC9kQVhQytVnBp" name="Page-1">
    <mxGraphModel dx="1298" dy="750" grid="1" gridSize="10" guides="1" tooltips="1" connect="1" arrows="1" fold="1" page="1" pageScale="1" pageWidth="827" pageHeight="1169" math="0" shadow="0">
      <root>
        <mxCell id="0" />
        <mxCell id="1" parent="0" />
        <mxCell id="RS-9tEE6GxHYi47KpNCq-1" value="" style="rounded=1;whiteSpace=wrap;html=1;" vertex="1" parent="1">
          <mxGeometry x="294" y="200" width="226" height="210" as="geometry" />
        </mxCell>
      </root>
    </mxGraphModel>
  </diagram>
</mxfile>
